<?xml version="1.0" encoding="iso-8859-1"?>
<!-- Generator: Adobe Illustrator 19.0.0, SVG Export Plug-In . SVG Version: 6.00 Build 0)  -->
<svg version="1.1" id="Layer_1" xmlns="http://www.w3.org/2000/svg" xmlns:xlink="http://www.w3.org/1999/xlink" x="0px" y="0px"
	 viewBox="0 0 511.969 511.969" style="enable-background:new 0 0 511.969 511.969;" xml:space="preserve">
<g>
	<g>
		<path d="M373.32,21.335c-13.498,0-26.561,1.93-38.888,5.531C312.761,10.031,285.545,0,255.984,0
			c-29.561,0-56.786,10.031-78.448,26.866c-12.335-3.602-25.381-5.531-38.88-5.531C62.082,21.335,0,83.409,0,159.99
			c0,57.676,35.225,107.127,85.331,128.024v223.955h341.3V288.014c50.121-20.896,85.338-70.348,85.338-128.024
			C511.968,83.409,449.879,21.335,373.32,21.335z M405.317,490.628h-10.685c0-5.875-4.766-10.656-10.656-10.656
			s-10.656,4.781-10.656,10.656h-21.342c0-5.875-4.781-10.656-10.656-10.656c-5.905,0-10.686,4.781-10.686,10.656h-21.312
			c0-5.875-4.78-10.656-10.686-10.656c-5.875,0-10.656,4.781-10.656,10.656h-21.334c0-5.875-4.773-10.656-10.664-10.656
			c-5.89,0-10.664,4.781-10.664,10.656h-21.334c0-5.875-4.773-10.656-10.664-10.656c-5.89,0-10.671,4.781-10.671,10.656h-21.327
			c0-5.875-4.781-10.656-10.671-10.656c-5.891,0-10.664,4.781-10.664,10.656h-21.334c0-5.875-4.773-10.656-10.664-10.656
			c-5.891,0-10.664,4.781-10.664,10.656h-10.671v-21.312h298.661V490.628z M470.439,225.807
			c-12.904,19.006-30.889,33.709-52.012,42.52l-13.109,5.469v14.219v159.959H106.657v-159.96v-14.218l-13.117-5.469
			c-21.124-8.811-39.107-23.514-52.02-42.52c-13.21-19.444-20.187-42.201-20.187-65.816c0-31.342,12.203-60.801,34.365-82.964
			c22.155-22.155,51.622-34.365,82.956-34.365c6.851,0,13.663,0.609,20.366,1.789c-19.334,22.421-31.029,51.614-31.029,83.542
			c0,5.89,4.773,10.664,10.664,10.664c5.89,0,10.671-4.773,10.671-10.664c0-28.49,11.093-55.278,31.24-75.417
			c20.14-20.147,46.927-31.24,75.417-31.24c28.498,0,55.277,11.093,75.418,31.24c20.139,20.14,31.232,46.919,31.232,75.41v0.008
			c0,5.89,4.78,10.664,10.686,10.664c5.875,0,10.656-4.773,10.656-10.664c0-31.928-11.688-61.121-31.029-83.542
			c6.703-1.179,13.515-1.789,20.373-1.789c31.326,0,60.794,12.21,82.949,34.365c22.17,22.163,34.357,51.622,34.357,82.964
			C490.627,183.606,483.658,206.362,470.439,225.807z"/>
	</g>
</g>
<g>
	<g>
		<path d="M181.324,234.65c-5.89,0-10.671,4.781-10.671,10.671v149.312c0,5.904,4.781,10.686,10.671,10.686
			c5.891,0,10.664-4.781,10.664-10.686V245.321C191.988,239.431,187.215,234.65,181.324,234.65z"/>
	</g>
</g>
<g>
	<g>
		<path d="M255.984,234.65c-5.89,0-10.664,4.781-10.664,10.671v149.312c0,5.904,4.773,10.686,10.664,10.686
			s10.664-4.781,10.664-10.686V245.321C266.648,239.431,261.875,234.65,255.984,234.65z"/>
	</g>
</g>
<g>
	<g>
		<path d="M330.636,234.65c-5.875,0-10.656,4.781-10.656,10.671v149.312c0,5.904,4.781,10.686,10.656,10.686
			c5.905,0,10.686-4.781,10.686-10.686V245.321C341.322,239.431,336.542,234.65,330.636,234.65z"/>
	</g>
</g>
<g>
</g>
<g>
</g>
<g>
</g>
<g>
</g>
<g>
</g>
<g>
</g>
<g>
</g>
<g>
</g>
<g>
</g>
<g>
</g>
<g>
</g>
<g>
</g>
<g>
</g>
<g>
</g>
<g>
</g>
</svg>
